# xmcd CD database file
#
# Track frame offsets:
#	150
#	19005
#	41963
#	54949
#	71191
#	82669
#	93862
#	106636
#	126832
#	144769
#	158231
#
# Disc length: 2345 seconds
#
# Revision: 0
# Processed by: cddbd v1.5.1PL0 Copyright (c) Steve Scherf et al.
# Submitted via: CDex 1.51
#
DISCID=8009270b
DTITLE=Sleepy John Estes - In Europe
DYEAR=1900
DGENRE=Blues
TTITLE0=Needmore Blues
TTITLE1=Who's Been Telling You
TTITLE2=Airplane Blues
TTITLE3=Vernita
TTITLE4=Denmark Blues
TTITLE5=I'm a Tering Little Daddy
TTITLE6=I Stayed Away Too Long
TTITLE7=Drop Down Mama
TTITLE8=The Woman I Love
TTITLE9=You Oughten't Do That
TTITLE10=Easin' Back To Tennessee
EXTD=
EXTT0=
EXTT1=
EXTT2=
EXTT3=
EXTT4=
EXTT5=
EXTT6=
EXTT7=
EXTT8=
EXTT9=
EXTT10=
PLAYORDER=
